<svg xmlns="http://www.w3.org/2000/svg" viewBox="0 0 343 58.728">
  <defs>
    <style>
      .cls-1 {
        fill: #bcbcbc;
      }

      .cls-2 {
        fill: #0033a1;
      }
    </style>
  </defs>
  <g id="Group_36" data-name="Group 36" transform="translate(-16 -19.836)">
    <g id="Group_35" data-name="Group 35" transform="translate(193.379 19.836)">
      <g id="Group_34" data-name="Group 34">
        <g id="Group_32" data-name="Group 32">
          <path id="Path_9" data-name="Path 9" class="cls-1" d="M321.7,48.432V19.6h15.413V43.383c0,4.783,2.458,7.374,6.311,7.374,3.654,0,6.511-2.458,6.511-7.374V19.6h15.413V63.513H349.935V57.534c-2.857,3.654-6.909,6.909-13.021,6.909C327.347,64.443,321.7,58.331,321.7,48.432Z" transform="translate(-285.36 -6.579)"/>
          <path id="Path_10" data-name="Path 10" class="cls-1" d="M282.546,0V35.941c0,5.182-2.458,7.906-6.511,7.906-3.521,0-6.112-1.927-8.769-5.182L267,38.93V55.938a26.843,26.843,0,0,0,10.032,1.727c6.511,0,11.759-2.059,15.546-5.846s5.647-8.769,5.647-15.878V.066H282.546Z" transform="translate(-267)"/>
        </g>
        <g id="Group_33" data-name="Group 33" transform="translate(85.7)">
          <path id="Path_11" data-name="Path 11" class="cls-1" d="M450.6,48.432V19.6h15.413V43.383c0,4.783,2.458,7.374,6.311,7.374,3.654,0,6.511-2.458,6.511-7.374V19.6h15.413V63.513H478.835V57.534c-2.857,3.654-6.909,6.909-13.021,6.909C456.247,64.443,450.6,58.331,450.6,48.432Z" transform="translate(-414.327 -6.579)"/>
          <path id="Path_12" data-name="Path 12" class="cls-1" d="M411.546,0V35.941c0,5.182-2.458,7.906-6.51,7.906-3.521,0-6.112-1.927-8.769-5.182L396,38.93V55.938a26.843,26.843,0,0,0,10.032,1.727c6.511,0,11.759-2.059,15.546-5.846s5.647-8.769,5.647-15.878V.066H411.546Z" transform="translate(-396)"/>
        </g>
      </g>
    </g>
    <path id="Path_13" data-name="Path 13" class="cls-2" d="M52.018,55.207a68.859,68.859,0,0,1-19.8,3.255c-11.227,0-18.867-2.79-24.049-7.706C2.79,45.64,0,38.266,0,30.095.066,10.1,14.948,0,33.483,0,41.189,0,47.1,1.329,50.025,2.79l-3.056,12.29c-3.255-1.462-7.108-2.458-13.619-2.458-9.434,0-17.273,4.916-17.273,16.542,0,10.7,6.909,16.874,16.21,16.874a16.15,16.15,0,0,0,4.85-.531V35.742H29.563V23.85H52.018Z" transform="translate(16 19.836)"/>
    <path id="Path_14" data-name="Path 14" class="cls-2" d="M98.216,49.972c.531,3.322,5.381,5.182,10.762,5.182a36.423,36.423,0,0,0,11.36-1.594l1.927,10.164a43.615,43.615,0,0,1-15.612,2.657c-14.682,0-23.053-8.039-23.053-21.325,0-9.7,6.311-22.255,21.658-22.255,13.486,0,19.266,9.965,19.266,21.392a26.3,26.3,0,0,1-.6,5.78H98.216Zm12.29-10.364c0-2.392-1.129-6.776-5.979-6.776-4.518,0-6.311,4.185-6.511,6.776Z" transform="translate(-12.061 12.183)"/>
    <path id="Path_15" data-name="Path 15" class="cls-2" d="M188.261,55.219a63.653,63.653,0,0,0,.664,10.164H175.107l-.8-3.654h-.332c-2.857,3.322-7.042,4.584-11.56,4.584-8.57,0-13.818-6.178-13.818-13.154,0-11.227,10.1-16.21,24.315-16.21v-.332c0-1.727-1.262-3.587-6.909-3.587a26.7,26.7,0,0,0-11.825,3.056l-2.657-9.633c2.657-1.462,8.636-3.853,17.339-3.853,14.35,0,19.4,7.972,19.4,18.469Zm-14.815-8.9c-6.311,0-9.766,1.727-9.766,5.448,0,2.657,1.727,3.986,4.318,3.986a5.67,5.67,0,0,0,5.248-3.853,7.935,7.935,0,0,0,.2-2.192Z" transform="translate(-33.879 12.25)"/>
    <path id="Path_16" data-name="Path 16" class="cls-2" d="M217.032,37.814c0-6.643-.066-10.629-.332-14.084h13.088l.6,7.574h.332a11.944,11.944,0,0,1,11.161-8.5,11.155,11.155,0,0,1,3.056.266v14.35a16.559,16.559,0,0,0-3.92-.4c-4.518,0-7.573,1.86-8.437,5.248a24.359,24.359,0,0,0-.2,2.657V65.584H217.032Z" transform="translate(-56.737 12.183)"/>
  </g>
</svg>
