<?xml version="1.0" encoding="utf-8"?>
<!-- Generator: Adobe Illustrator 22.0.1, SVG Export Plug-In . SVG Version: 6.00 Build 0)  -->
<!DOCTYPE svg PUBLIC "-//W3C//DTD SVG 1.1//EN" "http://www.w3.org/Graphics/SVG/1.1/DTD/svg11.dtd">
<svg version="1.1" id="Layer_1" xmlns="http://www.w3.org/2000/svg" xmlns:xlink="http://www.w3.org/1999/xlink" x="0px" y="0px"
	 viewBox="0 0 748.1 199.9" style="enable-background:new 0 0 748.1 199.9;" xml:space="preserve">
<style type="text/css">
	.st0{fill:#FFFFFF;}
	.st1{fill:#010101;}
	.st2{fill:#17A0DB;}
	.st3{fill:none;}
</style>
<g id="eye_background">
	<rect x="9.5" y="9.5" class="st0" width="180.9" height="180.9"/>
</g>
<g id="white_eye">
	<g>
		<path class="st0" d="M159.5,156.2c0.7,12-1.8,23.3-6.3,34.3h37.3V132c-18.1,5-29-32.7-93.4-67C63.3,47,32.9,41.2,9.5,40.3v30.5
			C48.2,57.2,155.8,96.1,159.5,156.2z"/>
		<path class="st0" d="M190.5,9.5h-14.7c3.5,11.4,8.3,22.9,14.7,31.6V9.5z"/>
		<path class="st0" d="M9.5,29.2c14.8-2.5,32.8-3.5,53.7-0.7c43.2,5.6,102.7,49.5,127.3,58.3V72.5c-9.1-17.4-19.3-39.5-23.6-63
			h-25.8c7.8,17.7,10.1,31.4-5.8,9.6c-2.4-3.3-4.9-6.4-7.4-9.6H9.5V29.2z"/>
		<path class="st0" d="M129.9,190.5c5.8-9.1,9.9-17.5,10.9-24.6c0.9-6.2,5.2-37.2-17.1-36.4c-16.1,0.6-14.9,30.9-14.9,30.9
			c-55.5,0-84.3-12.3-99.2-25.7v55.7h120.3V190.5z"/>
		<path class="st0" d="M65.1,94.5c-5.2-2.1-10.1-3.7-14.6-5c-0.7,1.2-1,2.5-1,3.9c0,4.4,3.5,7.9,7.9,7.9
			C61.3,101.4,64.6,98.4,65.1,94.5z"/>
		<path class="st0" d="M22.3,85.3c-0.5,2.6-0.8,5.4-0.8,8.2c0,24.2,19.6,43.8,43.8,43.8c16.6,0,31.1-9.3,38.4-22.9
			c-4.2-2.6-8.3-5-12.3-7.2c-5.1,9.8-15.2,15.9-26.2,15.9c-16.3,0-29.6-13.2-29.6-29.6c0-2.3,0.3-4.6,0.9-7
			C31.1,85.5,26.4,85.3,22.3,85.3z"/>
	</g>
</g>
<g id="black_eye">
	<path class="st1" d="M0.3,0.3v199.4h747.8V0.3H0.3z M190.5,41.2C184,32.5,179.2,21,175.8,9.6h14.7V41.2z M127.9,9.5
		c2.5,3.1,5,6.2,7.4,9.6c15.9,21.7,13.6,8.1,5.8-9.6H167c4.3,23.5,14.5,45.6,23.6,63v14.3C166,78,106.6,34.1,63.3,28.5
		c-20.9-2.7-38.9-1.7-53.7,0.7V9.5H127.9z M9.5,134.8c15,13.5,43.8,25.7,99.2,25.7c0,0-1.1-30.3,14.9-30.9
		c22.3-0.8,17.9,30.1,17.1,36.4c-1,7-5.1,15.4-10.9,24.6H9.5V134.8z M65.2,123c11.1,0,21-6.1,26.2-15.9c3.9,2.2,8,4.6,12.3,7.2
		c-7.4,13.6-21.9,22.9-38.4,22.9c-24.2,0-43.8-19.6-43.8-43.8c0-2.8,0.3-5.5,0.8-8.2c4.1,0,8.9,0.3,14.3,1.2c-0.6,2.4-0.9,4.7-0.9,7
		C35.6,109.8,48.9,123,65.2,123z M49.4,93.4c0-1.5,0.4-2.8,1-3.9c4.5,1.3,9.4,2.9,14.6,5c-0.6,3.9-3.8,6.9-7.8,6.9
		C53,101.4,49.4,97.9,49.4,93.4z M153.2,190.5c4.5-10.9,7-22.2,6.3-34.3c-3.7-60.2-111.3-99-150-85.4V40.3
		c23.3,0.9,53.7,6.7,87.6,24.8c64.3,34.3,75.3,72,93.4,66.9v58.5H153.2z M738.9,190.5H199.7V9.5h539.1L738.9,190.5L738.9,190.5z"/>
</g>
<g id="creative_background">
	<rect x="199.7" y="9.5" class="st2" width="539.1" height="180.9"/>
</g>
<path class="st3" d="M57.3,101.4c4,0,7.3-3,7.8-6.9c-5.2-2.1-10.1-3.7-14.6-5c-0.7,1.2-1,2.5-1,3.9C49.4,97.9,53,101.4,57.3,101.4z"
	/>
<path class="st3" d="M65.2,123c-16.3,0-29.6-13.2-29.6-29.6c0-2.3,0.3-4.6,0.9-7c-5.5-0.9-10.2-1.2-14.3-1.2
	c-0.5,2.6-0.8,5.4-0.8,8.2c0,24.2,19.6,43.8,43.8,43.8c16.6,0,31.1-9.3,38.4-22.9c-4.2-2.6-8.3-5-12.3-7.2
	C86.3,116.9,76.2,123,65.2,123z"/>
<g>
	<path d="M291.7,136c-4.5,1.9-13.8,4.8-26.1,4.8c-11.8,0-22.5-2.9-31.5-11.6c-7.4-7.1-12.3-19.2-12.3-33.6
		c0-24.8,16.3-45.8,46.5-45.8c9.5,0,17.3,2.2,20.8,4L287,59c-4.7-2.2-10.5-3.8-19.1-3.8c-24.4,0-39.6,16-39.6,40.2
		c0,25.1,14.7,40.2,38.3,40.2c9.4,0,15.4-1.3,18.6-3.1V101h-20.6v-5.1h27V136H291.7z"/>
	<path d="M306.8,107.3c0,20.2,11.2,28.3,24.2,28.3c9.3,0,14.1-1.9,17.6-3.6l1.6,4.9c-2.3,1.3-8.8,4.1-20,4.1
		c-18.3,0-29.7-13.3-29.7-31.9c0-21.2,12.2-34.4,28.6-34.4c20.8,0,24.8,19.5,24.8,28.7c0,1.7,0,2.7-0.2,3.8H306.8z M347.3,102.3
		c0.1-8.8-3.6-22.2-19-22.2c-14.1,0-20,12.4-21.2,22.2H347.3z"/>
	<path d="M404.8,124.7c0,5,0.1,10.2,0.9,15.1h-5.8l-0.9-9.2h-0.2c-3.1,4.9-10.2,10.6-20.4,10.6c-12.8,0-18.6-9-18.6-17.5
		c0-14.7,12.8-23.5,38.7-23.3v-1.7c0-6.2-1.2-18.7-16.3-18.6c-5.6,0-11.4,1.5-16,4.8l-2-4.7c5.8-3.8,12.9-5.5,18.6-5.5
		c18.4,0,22,13.7,22,25L404.8,124.7L404.8,124.7z M398.4,105.8c-13.8-0.4-32.1,1.7-32.1,17c0,9.2,6.1,13.3,12.7,13.3
		c10.6,0,16.6-6.5,18.7-12.7c0.6-1.3,0.7-2.8,0.7-3.8V105.8z"/>
	<path d="M417.9,95.4c0-6.4-0.1-12.8-0.6-19.1h5.8l0.2,12.8h0.4c2.8-8,9.4-14.3,18-14.3c0.9,0,1.9,0.1,2.7,0.2V81
		c-0.9-0.1-1.9-0.1-3-0.1c-8.7,0-15,7.6-16.6,17.7c-0.4,1.9-0.6,4-0.6,6.1v35h-6.4V95.4z"/>
	<g>
		<g>
			<g>
				<path class="st0" d="M513.7,115.3V70h24.2v37.4c0,7.5,3.9,11.6,9.9,11.6c5.7,0,10.2-3.9,10.2-11.6V70h24.2v69H558v-9.4
					c-4.5,5.7-10.9,10.9-20.5,10.9C522.6,140.5,513.7,130.9,513.7,115.3z"/>
				<path class="st0" d="M481.1,49.6v56.5c0,8.1-3.9,12.4-10.2,12.4c-5.5,0-9.6-3-13.8-8.1l-0.4,0.4v26.7c4.5,1.8,9.6,2.7,15.8,2.7
					c10.2,0,18.5-3.2,24.4-9.2c5.9-5.9,8.9-13.8,8.9-25V49.6H481.1z"/>
			</g>
			<g>
				<path class="st0" d="M648.3,115.3V70h24.2v37.4c0,7.5,3.9,11.6,9.9,11.6c5.7,0,10.2-3.9,10.2-11.6V70h24.2v69h-24.2v-9.4
					c-4.5,5.7-10.9,10.9-20.5,10.9C657.2,140.5,648.3,130.9,648.3,115.3z"/>
				<path class="st0" d="M615.7,49.6v56.5c0,8.1-3.9,12.4-10.2,12.4c-5.5,0-9.6-3-13.8-8.1l-0.4,0.4v26.7c4.5,1.8,9.6,2.7,15.8,2.7
					c10.2,0,18.5-3.2,24.4-9.2c5.9-5.9,8.9-13.8,8.9-25V49.6H615.7z"/>
			</g>
		</g>
	</g>
</g>
</svg>
