<?xml version="1.0" encoding="utf-8"?>
<!-- Generator: Adobe Illustrator 22.0.1, SVG Export Plug-In . SVG Version: 6.00 Build 0)  -->
<!DOCTYPE svg PUBLIC "-//W3C//DTD SVG 1.1//EN" "http://www.w3.org/Graphics/SVG/1.1/DTD/svg11.dtd">
<svg version="1.1" id="Layer_1" xmlns="http://www.w3.org/2000/svg" xmlns:xlink="http://www.w3.org/1999/xlink" x="0px" y="0px"
	 viewBox="0 0 748.1 199.9" style="enable-background:new 0 0 748.1 199.9;" xml:space="preserve">
<style type="text/css">
	.st0{fill:#FFFFFF;}
	.st1{fill:#010101;}
	.st2{fill:#17A0DB;}
	.st3{fill:none;}
</style>
<g id="eye_background">
	<rect x="9.5" y="9.5" class="st0" width="180.9" height="180.9"/>
</g>
<g id="white_eye">
	<g>
		<path class="st0" d="M159.5,156.2c0.7,12-1.8,23.3-6.3,34.3h37.3v-58.5C172.4,137,161.5,99.3,97.1,65C63.3,47,32.9,41.2,9.5,40.3
			v30.5C48.2,57.2,155.8,96.1,159.5,156.2z"/>
		<path class="st0" d="M190.5,9.5h-14.7c3.5,11.4,8.3,22.9,14.7,31.6V9.5z"/>
		<path class="st0" d="M9.5,29.2c14.8-2.5,32.8-3.5,53.7-0.7c43.2,5.6,102.7,49.5,127.3,58.3V72.5c-9.1-17.4-19.3-39.5-23.6-63
			h-25.8c7.8,17.7,10.1,31.4-5.8,9.6c-2.4-3.3-4.9-6.4-7.4-9.6H9.5V29.2z"/>
		<path class="st0" d="M129.9,190.5c5.8-9.1,9.9-17.5,10.9-24.6c0.9-6.2,5.2-37.2-17.1-36.4c-16.1,0.6-14.9,30.9-14.9,30.9
			c-55.5,0-84.3-12.3-99.2-25.7v55.7H129.9z"/>
		<path class="st0" d="M65.1,94.5c-5.2-2.1-10.1-3.7-14.6-5c-0.7,1.2-1,2.5-1,3.9c0,4.4,3.5,7.9,7.9,7.9
			C61.3,101.4,64.6,98.4,65.1,94.5z"/>
		<path class="st0" d="M22.3,85.3c-0.5,2.6-0.8,5.4-0.8,8.2c0,24.2,19.6,43.8,43.8,43.8c16.6,0,31.1-9.3,38.4-22.9
			c-4.2-2.6-8.3-5-12.3-7.2c-5.1,9.8-15.2,15.9-26.2,15.9c-16.3,0-29.6-13.2-29.6-29.6c0-2.3,0.3-4.6,0.9-7
			C31.1,85.5,26.4,85.3,22.3,85.3z"/>
	</g>
</g>
<g id="black_eye">
	<path class="st1" d="M0.3,0.3v199.4h747.8V0.3H0.3z M190.5,41.2c-6.5-8.7-11.3-20.2-14.7-31.6h14.7V41.2z M127.9,9.5
		c2.5,3.1,5,6.2,7.4,9.6c15.9,21.7,13.6,8.1,5.8-9.6H167c4.3,23.5,14.5,45.6,23.6,63v14.3c-24.6-8.8-84-52.7-127.3-58.3
		c-20.9-2.7-38.9-1.7-53.7,0.7V9.5H127.9z M9.5,134.8c15,13.5,43.8,25.7,99.2,25.7c0,0-1.1-30.3,14.9-30.9
		c22.3-0.8,17.9,30.1,17.1,36.4c-1,7-5.1,15.4-10.9,24.6H9.5V134.8z M65.2,123c11.1,0,21-6.1,26.2-15.9c3.9,2.2,8,4.6,12.3,7.2
		c-7.4,13.6-21.9,22.9-38.4,22.9c-24.2,0-43.8-19.6-43.8-43.8c0-2.8,0.3-5.5,0.8-8.2c4.1,0,8.9,0.3,14.3,1.2c-0.6,2.4-0.9,4.7-0.9,7
		C35.6,109.8,48.9,123,65.2,123z M49.4,93.4c0-1.5,0.4-2.8,1-3.9c4.5,1.3,9.4,2.9,14.6,5c-0.6,3.9-3.8,6.9-7.8,6.9
		C53,101.4,49.4,97.9,49.4,93.4z M153.2,190.5c4.5-10.9,7-22.2,6.3-34.3c-3.7-60.2-111.3-99-150-85.4V40.3
		c23.3,0.9,53.7,6.7,87.6,24.8c64.3,34.3,75.3,72,93.4,66.9v58.5H153.2z M738.9,190.5H199.7V9.5h539.1L738.9,190.5L738.9,190.5z"/>
</g>
<g id="creative_background">
	<rect x="199.7" y="9.5" class="st2" width="539.1" height="180.9"/>
</g>
<path class="st3" d="M57.3,101.4c4,0,7.3-3,7.8-6.9c-5.2-2.1-10.1-3.7-14.6-5c-0.7,1.2-1,2.5-1,3.9C49.4,97.9,53,101.4,57.3,101.4z"
	/>
<path class="st3" d="M65.2,123c-16.3,0-29.6-13.2-29.6-29.6c0-2.3,0.3-4.6,0.9-7c-5.5-0.9-10.2-1.2-14.3-1.2
	c-0.5,2.6-0.8,5.4-0.8,8.2c0,24.2,19.6,43.8,43.8,43.8c16.6,0,31.1-9.3,38.4-22.9c-4.2-2.6-8.3-5-12.3-7.2
	C86.3,116.9,76.2,123,65.2,123z"/>
<path d="M289.6,131.8c-4,1.7-12.4,4.3-23.4,4.3c-10.6,0-20.2-2.6-28.2-10.4c-6.6-6.4-11-17.2-11-30.1c0-22.2,14.6-41,41.7-41
	c8.5,0,15.5,2,18.6,3.6l-1.9,4.6c-4.2-2-9.4-3.4-17.1-3.4c-21.9,0-35.5,14.3-35.5,36c0,22.5,13.2,36,34.3,36
	c8.4,0,13.8-1.2,16.7-2.8v-28.2h-18.5v-4.6h24.2V131.8z"/>
<path d="M303.2,106.1c0,18.1,10,25.4,21.7,25.4c8.3,0,12.6-1.7,15.8-3.2l1.4,4.4c-2.1,1.2-7.9,3.7-17.9,3.7
	c-16.4,0-26.6-11.9-26.6-28.6c0-19,10.9-30.8,25.6-30.8c18.6,0,22.2,17.5,22.2,25.7c0,1.5,0,2.4-0.2,3.4H303.2z M339.5,101.6
	c0.1-7.9-3.2-19.9-17-19.9c-12.6,0-17.9,11.1-19,19.9H339.5z"/>
<path d="M391,121.7c0,4.5,0.1,9.1,0.8,13.5h-5.2l-0.8-8.2h-0.2c-2.8,4.4-9.1,9.5-18.3,9.5c-11.5,0-16.7-8.1-16.7-15.7
	c0-13.2,11.5-21.1,34.7-20.9v-1.5c0-5.6-1.1-16.8-14.6-16.7c-5,0-10.2,1.3-14.3,4.3l-1.8-4.2c5.2-3.4,11.6-4.9,16.7-4.9
	c16.5,0,19.7,12.3,19.7,22.4V121.7z M385.3,104.7c-12.4-0.4-28.8,1.5-28.8,15.2c0,8.2,5.5,11.9,11.4,11.9c9.5,0,14.9-5.8,16.8-11.4
	c0.5-1.2,0.6-2.5,0.6-3.4V104.7z"/>
<path d="M402.7,95.4c0-5.7-0.1-11.5-0.5-17.1h5.2l0.2,11.5h0.4c2.5-7.2,8.4-12.8,16.1-12.8c0.8,0,1.7,0.1,2.4,0.2v5.3
	c-0.8-0.1-1.7-0.1-2.7-0.1c-7.8,0-13.4,6.8-14.9,15.9c-0.4,1.7-0.5,3.6-0.5,5.5v31.4h-5.7V95.4z"/>
<path d="M431.1,127.7c3.1,1.9,7.7,3.9,12.8,3.9c9,0,13.3-4.9,13.3-10.8c0-6.3-3.8-9.6-12-12.9c-9.4-3.6-14.5-8.7-14.5-15.5
	c0-8.3,6.5-15.4,17.5-15.4c5.2,0,9.7,1.5,12.6,3.6l-2.1,4.6c-2-1.4-5.7-3.4-11.4-3.4c-7.2,0-11,4.6-11,9.8c0,5.9,4,8.4,11.7,11.6
	c9.2,3.7,14.7,8.3,14.7,17c0,9.7-7.6,16.2-19.2,16.2c-5.5,0-10.7-1.5-14.5-3.9L431.1,127.7z"/>
<g>
	<g>
		<g>
			<path class="st0" d="M530.1,113.2V72.6h21.7v33.5c0,6.7,3.5,10.4,8.9,10.4c5.1,0,9.1-3.5,9.1-10.4V72.6h21.7v61.8h-21.7v-8.4
				c-4,5.1-9.8,9.8-18.4,9.8C538.1,135.8,530.1,127.2,530.1,113.2z"/>
			<path class="st0" d="M500.9,54.4V105c0,7.3-3.5,11.1-9.1,11.1c-4.9,0-8.6-2.7-12.4-7.3l-0.4,0.4v23.9c4,1.6,8.6,2.4,14.2,2.4
				c9.1,0,16.6-2.9,21.9-8.2c5.3-5.3,8-12.4,8-22.4V54.4H500.9z"/>
		</g>
		<g>
			<path class="st0" d="M650.7,113.2V72.6h21.7v33.5c0,6.7,3.5,10.4,8.9,10.4c5.1,0,9.1-3.5,9.1-10.4V72.6h21.7v61.8h-21.7v-8.4
				c-4,5.1-9.8,9.8-18.4,9.8C658.7,135.8,650.7,127.2,650.7,113.2z"/>
			<path class="st0" d="M621.5,54.4V105c0,7.3-3.5,11.1-9.1,11.1c-4.9,0-8.6-2.7-12.4-7.3l-0.4,0.4v23.9c4,1.6,8.6,2.4,14.2,2.4
				c9.1,0,16.6-2.9,21.9-8.2c5.3-5.3,8-12.4,8-22.4V54.4H621.5z"/>
		</g>
	</g>
</g>
</svg>
