<?xml version="1.0" encoding="utf-8"?>
<!-- Generator: Adobe Illustrator 22.0.1, SVG Export Plug-In . SVG Version: 6.00 Build 0)  -->
<!DOCTYPE svg PUBLIC "-//W3C//DTD SVG 1.1//EN" "http://www.w3.org/Graphics/SVG/1.1/DTD/svg11.dtd">
<svg version="1.1" id="Layer_1" xmlns="http://www.w3.org/2000/svg" xmlns:xlink="http://www.w3.org/1999/xlink" x="0px" y="0px"
	 viewBox="0 0 1920 1080" style="enable-background:new 0 0 1920 1080;" xml:space="preserve">
<style type="text/css">
	.st0{opacity:3.000000e-02;fill:#1A1A1A;enable-background:new    ;}
	.st1{opacity:3.000000e-02;enable-background:new    ;}
	.st2{opacity:3.000000e-02;}
</style>
<path class="st0" d="M818.9,799.1L818.9,799.1L818.9,799.1z"/>
<path class="st1" d="M1671.1,738.2c-8.4-135.6-290.2-215.6-315.4-144.1c-11.7,33.3-50.7,49.1-60.2,48.1c-9.6-1-16.8-22.3-39.5-22.3
	c-22.8,0-41.9,13.2-62.3,13.2c0,0,15.6,22.3,19.2,34.5s8.4,28.4,37.1,25.4c28.8-3,44.1-11.1,58.5-24.3s27-30.3,41.4-39.4
	c0,0-16.2,117.3,223,117.3c0,0-2.2-58.7,28.9-59.9c43.2-1.6,34.8,58.4,33.1,70.4c-10.7,75.8-205.6,234-134.5,262
	c27.3,10.7,3.7-10.1,47.8-62.9C1609.5,882.5,1675.5,818.6,1671.1,738.2z M1459.7,609c8.8,2.5,18.2,5.7,28.4,9.7
	c-1,7.5-7.4,13.2-15.1,13.2c-8.5,0-15.3-6.9-15.3-15.3C1457.6,613.8,1458.4,611.3,1459.7,609z M1488.2,701.4
	c-46.8,0-84.8-37.9-84.8-84.8c0-5.4,0.6-10.8,1.5-15.9c7.9,0,17.1,0.6,27.7,2.3c-1.1,4.5-1.7,9.1-1.7,13.6
	c0,31.6,25.7,57.3,57.3,57.3c21.4,0,40.8-11.8,50.7-30.8c7.7,4.3,15.6,8.8,23.8,14C1548.4,683.4,1520.4,701.4,1488.2,701.4z"/>
<path class="st1" d="M1561,1052.1c22.8-22.6,41.3-40.3,52.5-50.9c22.4-21.3,5.4-24.4,8.5-40.4s77.1-104.1-14.7-19
	c-28.2,26.2-49.9,59.4-60.4,102.9C1540.4,1072.3,1526.6,1086.2,1561,1052.1z"/>
<path class="st1" d="M1204.3,1079.7C1234,1005,1298,944.5,1317,933.4c23.9-14-33.9-50.6-64-93.7c-30.1-43.1-13.4-72.8-7.6-85
	c5.9-12.2-105.4-53.6-105.4-53.6c-108.3,41.3-263,176.4-263,176.4s214.9-73.8,288.7,73.8c-55.8,13.6-105.4,68.1-145.2,129.7
	L1204.3,1079.7z"/>
<path class="st1" d="M867.4,139.8L867.4,139.8L867.4,139.8L867.4,139.8z"/>
<path class="st1" d="M1084.2,539.5c-79.9,6.7-115.8,5.3-206.7-107.4s-172.8-26.8-172.8-26.8c101.9-1.1,136.7,94.9,52.8,155.2
	s-218.6,10.1-218.6,10.1C802,716.5,1084.2,539.5,1084.2,539.5z"/>
<path class="st1" d="M1289.4,391.5c0,0,80.6-21.7,56.7-108.6c0,0,162.6,31.6,278.1,189.7c47.2,64.7,11.5-32-17.8-70.4
	c-168.3-220.5-428-260.2-428-260.2C860.7,99,746.2,330.2,746.2,330.2S1084.2-5.7,1289.4,391.5z"/>
<g class="st2">
	<path d="M957.4,1080c31.8-51.1,71.8-99.4,121.7-136.7c0,0-125.4-42-269.5,136.7H957.4z"/>
</g>
<g class="st2">
	<path d="M1256.2,429.6C1062.2,113.4,879,301.2,879,301.2c90.1,281.8,328,188.3,328,188.3c-118.6,193.4-447.5,189.1-447.5,189.1
		C660,816.5,611,957.1,588.8,1080h145.7c79-107.7,160.8-160.8,160.8-160.8c-98.9,8.5-171.8,87.2-171.8,87.2
		c86.6-176.5,142.4-226.8,378.2-351.2C1279.8,561.3,1256.2,429.6,1256.2,429.6z"/>
</g>
<path class="st1" d="M1403.7,1080c3.4-14.4,5.7-26.2,5.1-34.3c-1.4-19.5-6.7-21.8-37.2,7.4c-30.6,29.2-52.1,1-62.9-17.2
	c-10.8-18.3-14.2-10.7-30.6,8.2c-11.4,13.1-19.6,25.1-25.1,36L1403.7,1080L1403.7,1080z"/>
<path class="st1" d="M1920,633.6v-71.5c-45.1,25.6-81.8,47.5-95.5,44.4c27.7-51.7,82.7-146.5,61.5-235.6c0,0-9.4,102.3-49.3,149.6
	c0,0-14.9,25.2-50.8,25.2s-50.8-25.2-50.8-25.2c-39.9-47.3-49.3-149.6-49.3-149.6c-21.2,89.1,33.8,184,61.5,235.6
	c-29.5,6.7-166.9-103.3-262.9-115.8c-123.4-16-195.8,33.5-195.8,33.5s113.7-41.5,261.4,37.3c147.8,78.8,150.1,167,202.7,115.2
	c0,0-16.4,58.6-5.7,74.1c38.2,55.6,18.7,55.8-26.6,81.3c-45.3,25.5-50.5,41.3,0.8,17.4c51.3-23.9,64.7-25.4,64.7-25.4l0,0
	c0,0,13.4,1.5,64.7,25.4c51.3,23.9,46.1,8.1,0.8-17.4c-45.3-25.5-64.9-25.7-26.6-81.3c10.7-15.6-5.7-74.1-5.7-74.1
	C1855.3,712.4,1867.7,681.8,1920,633.6z"/>
<path class="st1" d="M1920,683.2c-11,17-17.9,35.4-19.2,55c-1.6,29,6,55.8,19.2,81.7V683.2z"/>
<g class="st2">
	<path d="M1920,0h-803.5c-82.3,34.3-185.4,76.3-249.1,139.8c374.6-124.8,589.1,61.7,589.1,61.7c-25.9-130.2,197.6,146.8,197.6,146.8
		c15-76.1-30.7-247.2-30.7-247.2c45.6,37.8,72.5,112.9,88.2,179.4c4.7-61.6,22.5-83.4,22.5-83.4c38,76.1,54.2,233.6,54.2,233.6
		s16.2-157.4,54.2-233.6c0,0,17.8,21.8,22.5,83.4c11.4-48.5,28.8-101.5,55.1-141.4L1920,0L1920,0z"/>
	<path d="M1920,290.3c-0.8,13.9-0.9,27.2,0,39.1V290.3z"/>
</g>
</svg>
